<mxfile host="app.diagrams.net" modified="2022-11-13T20:22:58.812Z" agent="5.0 (X11)" etag="eiae7IzfULoVcPZ8ON06" version="20.5.3" type="github">
  <diagram id="jI7hVdCSukzOemFauxM4" name="Page-1">
    <mxGraphModel dx="782" dy="728" grid="1" gridSize="10" guides="1" tooltips="1" connect="1" arrows="1" fold="1" page="1" pageScale="1" pageWidth="1100" pageHeight="850" math="0" shadow="0">
      <root>
        <mxCell id="0" />
        <mxCell id="1" parent="0" />
        <mxCell id="HdESObEHxrQG4koStMaI-2" value="&lt;font style=&quot;font-size: 16px;&quot;&gt;Main Memory&lt;/font&gt;" style="rounded=0;whiteSpace=wrap;html=1;fillColor=#dae8fc;strokeColor=#6c8ebf;" vertex="1" parent="1">
          <mxGeometry x="280" y="200" width="400" height="40" as="geometry" />
        </mxCell>
        <mxCell id="HdESObEHxrQG4koStMaI-3" value="&lt;div style=&quot;font-size: 16px;&quot;&gt;&lt;font style=&quot;font-size: 16px;&quot;&gt;Fetch &lt;br&gt;&lt;/font&gt;&lt;/div&gt;&lt;div style=&quot;font-size: 16px;&quot;&gt;&lt;font style=&quot;font-size: 16px;&quot;&gt;Cycle&lt;br&gt;&lt;/font&gt;&lt;/div&gt;" style="whiteSpace=wrap;html=1;aspect=fixed;fillColor=#fff2cc;strokeColor=#d6b656;" vertex="1" parent="1">
          <mxGeometry x="280" y="280" width="120" height="120" as="geometry" />
        </mxCell>
        <mxCell id="HdESObEHxrQG4koStMaI-4" value="&lt;div style=&quot;font-size: 16px;&quot;&gt;Execution&lt;/div&gt;&lt;div style=&quot;font-size: 16px;&quot;&gt;Cycle&lt;br style=&quot;font-size: 16px;&quot;&gt;&lt;/div&gt;" style="whiteSpace=wrap;html=1;aspect=fixed;fontSize=16;fillColor=#fff2cc;strokeColor=#d6b656;" vertex="1" parent="1">
          <mxGeometry x="560" y="280" width="120" height="120" as="geometry" />
        </mxCell>
        <mxCell id="HdESObEHxrQG4koStMaI-5" value="" style="rounded=0;whiteSpace=wrap;html=1;fillColor=#f8cecc;strokeColor=#b85450;" vertex="1" parent="1">
          <mxGeometry x="460" y="270" width="40" height="140" as="geometry" />
        </mxCell>
        <mxCell id="HdESObEHxrQG4koStMaI-6" value="Register" style="text;html=1;strokeColor=none;fillColor=none;align=center;verticalAlign=middle;whiteSpace=wrap;rounded=0;rotation=-90;fontSize=19;" vertex="1" parent="1">
          <mxGeometry x="450" y="325" width="60" height="30" as="geometry" />
        </mxCell>
        <mxCell id="HdESObEHxrQG4koStMaI-7" value="" style="endArrow=classic;html=1;rounded=0;fontSize=16;entryX=0;entryY=0.875;entryDx=0;entryDy=0;entryPerimeter=0;exitX=1;exitY=0.875;exitDx=0;exitDy=0;exitPerimeter=0;" edge="1" parent="1" source="HdESObEHxrQG4koStMaI-3" target="HdESObEHxrQG4koStMaI-4">
          <mxGeometry width="50" height="50" relative="1" as="geometry">
            <mxPoint x="380" y="430" as="sourcePoint" />
            <mxPoint x="430" y="360" as="targetPoint" />
          </mxGeometry>
        </mxCell>
        <mxCell id="HdESObEHxrQG4koStMaI-10" value="" style="curved=1;endArrow=classic;html=1;rounded=0;fontSize=16;" edge="1" parent="1">
          <mxGeometry width="50" height="50" relative="1" as="geometry">
            <mxPoint x="340" y="230" as="sourcePoint" />
            <mxPoint x="320" y="300" as="targetPoint" />
            <Array as="points">
              <mxPoint x="310" y="220" />
              <mxPoint x="280" y="250" />
              <mxPoint x="295" y="300" />
            </Array>
          </mxGeometry>
        </mxCell>
        <mxCell id="HdESObEHxrQG4koStMaI-11" value="" style="curved=1;endArrow=classic;html=1;rounded=0;fontSize=16;" edge="1" parent="1">
          <mxGeometry width="50" height="50" relative="1" as="geometry">
            <mxPoint x="310" y="330" as="sourcePoint" />
            <mxPoint x="360" y="370" as="targetPoint" />
            <Array as="points">
              <mxPoint x="290" y="360" />
              <mxPoint x="310" y="400" />
            </Array>
          </mxGeometry>
        </mxCell>
        <mxCell id="HdESObEHxrQG4koStMaI-12" value="" style="curved=1;endArrow=classic;html=1;rounded=0;fontSize=16;" edge="1" parent="1">
          <mxGeometry width="50" height="50" relative="1" as="geometry">
            <mxPoint x="650" y="300" as="sourcePoint" />
            <mxPoint x="640" y="220" as="targetPoint" />
            <Array as="points">
              <mxPoint x="650" y="300" />
              <mxPoint x="680" y="270" />
              <mxPoint x="665" y="220" />
            </Array>
          </mxGeometry>
        </mxCell>
        <mxCell id="HdESObEHxrQG4koStMaI-13" value="" style="curved=1;endArrow=classic;html=1;rounded=0;fontSize=16;" edge="1" parent="1">
          <mxGeometry width="50" height="50" relative="1" as="geometry">
            <mxPoint x="650" y="395" as="sourcePoint" />
            <mxPoint x="650" y="325" as="targetPoint" />
            <Array as="points">
              <mxPoint x="670" y="385" />
              <mxPoint x="680" y="345" />
            </Array>
          </mxGeometry>
        </mxCell>
        <mxCell id="HdESObEHxrQG4koStMaI-14" value="1" style="text;html=1;strokeColor=none;fillColor=none;align=center;verticalAlign=middle;whiteSpace=wrap;rounded=0;fontSize=16;" vertex="1" parent="1">
          <mxGeometry x="264" y="246" width="60" height="30" as="geometry" />
        </mxCell>
        <mxCell id="HdESObEHxrQG4koStMaI-15" value="2" style="text;html=1;strokeColor=none;fillColor=none;align=center;verticalAlign=middle;whiteSpace=wrap;rounded=0;fontSize=16;" vertex="1" parent="1">
          <mxGeometry x="290" y="365" width="60" height="30" as="geometry" />
        </mxCell>
        <mxCell id="HdESObEHxrQG4koStMaI-16" value="3" style="text;html=1;strokeColor=none;fillColor=none;align=center;verticalAlign=middle;whiteSpace=wrap;rounded=0;fontSize=16;" vertex="1" parent="1">
          <mxGeometry x="633" y="356" width="60" height="30" as="geometry" />
        </mxCell>
        <mxCell id="HdESObEHxrQG4koStMaI-17" value="4" style="text;html=1;strokeColor=none;fillColor=none;align=center;verticalAlign=middle;whiteSpace=wrap;rounded=0;fontSize=16;" vertex="1" parent="1">
          <mxGeometry x="634" y="244" width="60" height="30" as="geometry" />
        </mxCell>
      </root>
    </mxGraphModel>
  </diagram>
</mxfile>
